<svg version="1.2" xmlns="http://www.w3.org/2000/svg" viewBox="0 0 1024 704" width="1024" height="704">
	<style>
		.s0 { fill: #fefefe } 
		.s1 { fill: #181818 } 
		.s2 { opacity: .5;fill: none;stroke: #000000;stroke-miterlimit:100 } 
	</style>
	<g id="Background">
		<path id="Path 0" class="s0" d="m0 704v-704h1024v704z"/>
		<path id="Path 1" class="s1" d="m31 19h904v5h-16v15l-14 2-4 10h-24l-1 11-3 3-22 1-6 16-30 1 1 13-22 1 3 12-27 11-3 6 6 6-15 6 1 4 20 5-3 6-15 3 1 5 33 2 5 3-14 11 20 5 1 4-12 7-11 2-1 3 30 4 7 6-8 5-20 2-1 4 13 4h17l3 7-5 6 27 3-1 4-8 3-3 5 3 3 13 1-4 7 1 4 16 3-1 5-10 5-1 4h13l5 4-6 11 12 3-4 13 13 3-6 14 10 4-4 6-19 4 2 5 8 1-1 4-13 5-24 3v5l13-1v4l-40 8-1 2 16 2-3 5-8 2v4h-783l-1-4h548l39-4 3-3-42-3v-3l34-2 2-3-37-4-1-3h-545l-1-3h586l10-2-2-4-42-1-5-4 6-4h30l14-2 1-3-51-5h-546l-1-4h566l38-2 6-7-5-3-59-1 2-4 25-2-1-3-16-2h-555l-1-4h546l68-3-6-5h-57l-4-2 4-5h48l5-1 1-4-55-3-5-4h-545l1-3 618-1v-4l-7-2-61-1-1-13 21-4-570-1v-3h547v-6l4-2h56l3-2-1-3-62-4-1-3 3-2h36v-3h-586v-3h547l4-8 53-3-5-4-49 1-1-10h-548l-1-4h592l-8-3-33 1-3-2 1-9 49-4 4-5-602-2v-3l549-1v-8l3-3 37-2 3-3-8-3-28-1-7-5h-548v-3h560l-10-4v-3l5-1 62-3 3 9h25l50-8v-3l-19-1-132-1v-4l14-2 1-3h-559l-1-4h558l-7-19 20-3v-3h-570l-1-4h582l-2-25h-579l-1-3 596-1 1-4 10-1-2-16 15-1v-3h-619zm895 355l22 3 19 8 20 12 9 16v42l-11 1-3 3-5 26 6 104-4 11-10 8h-939v-3h577l-6-23h-571l1-4h569l-8-23h-562v-3h562l-3-24h-559l1-3h558l-9-23h-549l-1-4h550l8-7h14l22 5 6 9 16-63 1-30 16 14 8 19-1 27-5 9-11-2v19h222l10-6 23-1 12 3 6 6 7-39 1-40z"/>
		<path id="Path 2" class="s0" d="m712 22l106 3 12 3-121 3-1-4zm-55 18l110 2 2 3-110 1-4-3zm25 12l99 5 12 1 2 3-113 2zm-52 13l111 5-86 8-1-8h-25zm17 18l125 1 7 1v3l-109 5-24 5-2-13zm-41 18l120 1 22 3-2 3-10 1-93 6-3-7-32-1zm54 43l82 2 1 4-81 7-3-6zm12 22h84v3l-82 8-4-2zm56 16h42v4l-86 8-3 4 6 6 89 1 3 1-1 4-108 8v-12l-6-5 12-8 4-10zm-60 39h26l4 5 60-1v4l-55 6 3 8 74-2v4l-116 1-2-6 6-4zm-3 29h48l4 9 76-2v3l-66 6-2 2 2 7h-55l-2-4-16-5 1-3 15-1zm132 23l8 2-75 8 2 5 4 1h77v3l-7 1-67 5 2 7h-76l-7-11 5-6 1-10 70 1zm9 32h7v4l-65 7 3 7 9 1 47-3-1 3-11 4-41 5h-97l4-7-8-7 6-5-2-5h98zm-151 32l177 2-71 9 5 6 53-1-2 5-36 4h-121l-5-6v-5l7-2 2-6zm1 28h114l11 5-9 6v3l11 4v4l-7 3h-130l-3-11 12-3zm-3 137h222l2 6 8 6 1 6-1 5h-227l-5-12zm7 26h225l11 16 2 8h-232zm6 27h235l5 6 4 15-245 2zm-2 27h247l4 23h-257z"/>
		<path id="Stroke" class="s2" d="m0 704v-704h1024v704zm31-685h904v5h-16v15l-14 2-4 10h-24l-1 11-3 3-22 1-6 16-30 1 1 13-22 1 3 12-27 11-3 6 6 6-15 6 1 4 20 5-3 6-15 3 1 5 33 2 5 3-14 11 20 5 1 4-12 7-11 2-1 3 30 4 7 6-8 5-20 2-1 4 13 4h17l3 7-5 6 27 3-1 4-8 3-3 5 3 3 13 1-4 7 1 4 16 3-1 5-10 5-1 4h13l5 4-6 11 12 3-4 13 13 3-6 14 10 4-4 6-19 4 2 5 8 1-1 4-13 5-24 3v5l13-1v4l-40 8-1 2 16 2-3 5-8 2v4h-783l-1-4h548l39-4 3-3-42-3v-3l34-2 2-3-37-4-1-3h-545l-1-3h586l10-2-2-4-42-1-5-4 6-4h30l14-2 1-3-51-5h-546l-1-4h566l38-2 6-7-5-3-59-1 2-4 25-2-1-3-16-2h-555l-1-4h546l68-3-6-5h-57l-4-2 4-5h48l5-1 1-4-55-3-5-4h-545l1-3 618-1v-4l-7-2-61-1-1-13 21-4-570-1v-3h547v-6l4-2h56l3-2-1-3-62-4-1-3 3-2h36v-3h-586v-3h547l4-8 53-3-5-4-49 1-1-10h-548l-1-4h592l-8-3-33 1-3-2 1-9 49-4 4-5-602-2v-3l549-1v-8l3-3 37-2 3-3-8-3-28-1-7-5h-548v-3h560l-10-4v-3l5-1 62-3 3 9h25l50-8v-3l-19-1-132-1v-4l14-2 1-3h-559l-1-4h558l-7-19 20-3v-3h-570l-1-4h582l-2-25h-579l-1-3 596-1 1-4 10-1-2-16 15-1v-3h-619zm895 355l22 3 19 8 20 12 9 16v42l-11 1-3 3-5 26 6 104-4 11-10 8h-939v-3h577l-6-23h-571l1-4h569l-8-23h-562v-3h562l-3-24h-559l1-3h558l-9-23h-549l-1-4h550l8-7h14l22 5 6 9 16-63 1-30 16 14 8 19-1 27-5 9-11-2v19h222l10-6 23-1 12 3 6 6 7-39 1-40zm-214-352l106 3 12 3-121 3-1-4zm-55 18l110 2 2 3-110 1-4-3zm25 12l99 5 12 1 2 3-113 2zm-52 13l111 5-86 8-1-8h-25zm17 18l125 1 7 1v3l-109 5-24 5-2-13zm-41 18l120 1 22 3-2 3-10 1-93 6-3-7-32-1zm54 43l82 2 1 4-81 7-3-6zm12 22h84v3l-82 8-4-2zm56 16h42v4l-86 8-3 4 6 6 89 1 3 1-1 4-108 8v-12l-6-5 12-8 4-10zm-60 39h26l4 5 60-1v4l-55 6 3 8 74-2v4l-116 1-2-6 6-4zm-3 29h48l4 9 76-2v3l-66 6-2 2 2 7h-55l-2-4-16-5 1-3 15-1zm132 23l8 2-75 8 2 5 4 1h77v3l-7 1-67 5 2 7h-76l-7-11 5-6 1-10 70 1zm9 32h7v4l-65 7 3 7 9 1 47-3-1 3-11 4-41 5h-97l4-7-8-7 6-5-2-5h98zm-151 32l177 2-71 9 5 6 53-1-2 5-36 4h-121l-5-6v-5l7-2 2-6zm1 28h114l11 5-9 6v3l11 4v4l-7 3h-130l-3-11 12-3zm-3 137h222l2 6 8 6 1 6-1 5h-227l-5-12zm7 26h225l11 16 2 8h-232zm6 27h235l5 6 4 15-245 2zm-2 27h247l4 23h-257z"/>
	</g>
</svg>